<?xml version="1.0" standalone="no"?>
<!DOCTYPE svg PUBLIC "-//W3C//DTD SVG 20010904//EN"
 "http://www.w3.org/TR/2001/REC-SVG-20010904/DTD/svg10.dtd">
<svg version="1.0" xmlns="http://www.w3.org/2000/svg"
 width="512.000000pt" height="512.000000pt" viewBox="0 0 512.000000 512.000000"
 preserveAspectRatio="xMidYMid meet">

<g transform="translate(0.000000,512.000000) scale(0.100000,-0.100000)"
fill="#000000" stroke="none">
<path d="M3981 3829 c-42 -13 -81 -51 -912 -904 -353 -363 -743 -762 -866
-887 l-223 -226 -327 386 c-420 498 -448 529 -494 552 -70 36 -180 21 -237
-33 -64 -59 -86 -174 -47 -247 21 -41 922 -1107 966 -1145 55 -46 152 -56 224
-23 41 19 2158 2189 2181 2235 28 58 24 140 -10 197 -48 82 -160 124 -255 95z"/>
</g>
</svg>
