<?xml version="1.0" encoding="UTF-8"?>
<svg xmlns="http://www.w3.org/2000/svg" xmlns:xlink="http://www.w3.org/1999/xlink" width="32px" height="32px" viewBox="0 0 32 32" version="1.1">
<g id="surface1">
<path style=" stroke:none;fill-rule:nonzero;fill:rgb(0%,0%,0%);fill-opacity:1;" d="M 31 22 C 30.449219 22 30 22.449219 30 23 L 30 30 L 2 30 L 2 23 C 2 22.449219 1.550781 22 1 22 C 0.449219 22 0 22.449219 0 23 L 0 31 C 0 31.550781 0.449219 32 1 32 L 31 32 C 31.550781 32 32 31.550781 32 31 L 32 23 C 32 22.449219 31.550781 22 31 22 Z M 31 22 "/>
<path style=" stroke:none;fill-rule:nonzero;fill:rgb(0%,0%,0%);fill-opacity:1;" d="M 15.269531 23.707031 C 15.660156 24.09375 16.308594 24.097656 16.699219 23.707031 L 23.699219 16.808594 C 24.09375 16.414062 24.09375 15.78125 23.699219 15.394531 C 23.304688 15 22.664062 15 22.269531 15.394531 L 16.996094 20.59375 L 16.996094 1 C 16.996094 0.449219 16.542969 0 15.984375 0 C 15.425781 0 14.976562 0.449219 14.976562 1 L 14.976562 20.59375 L 9.699219 15.394531 C 9.304688 15 8.664062 15 8.273438 15.394531 C 7.875 15.785156 7.875 16.417969 8.273438 16.808594 Z M 15.269531 23.707031 "/>
</g>
</svg>
