<?xml version="1.0" encoding="utf-8"?>
<!-- Svg Vector Icons : http://www.onlinewebfonts.com/icon -->
<!DOCTYPE svg PUBLIC "-//W3C//DTD SVG 1.1//EN" "http://www.w3.org/Graphics/SVG/1.1/DTD/svg11.dtd">
<svg version="1.1" xmlns="http://www.w3.org/2000/svg" xmlns:xlink="http://www.w3.org/1999/xlink" x="0px" y="0px" viewBox="0 0 256 256" enable-background="new 0 0 256 256" xml:space="preserve">
<metadata> Svg Vector Icons : http://www.onlinewebfonts.com/icon </metadata>
<g><g><path fill="#000000" d="M126.7,90.5h1.5c8.7,0,16.3,3.2,22.6,9.6c6.4,6.4,9.6,13.9,9.6,22.6v2L126.7,90.5z M80.4,99c-4,8-6,15.9-6,23.6c0,14.8,5.3,27.4,15.8,38c10.6,10.6,23.2,15.8,38,15.8c7.7,0,15.6-2,23.6-6l-16.6-16.6c-2.7,0.7-5,1-7,1c-8.7,0-16.3-3.2-22.6-9.6c-6.4-6.4-9.6-13.9-9.6-22.6c0-2,0.3-4.4,1-7L80.4,99z M21.1,39.7l13.6-13.6l190.2,190.2l-13.6,13.6c-1.7-1.7-7-6.9-15.8-15.6c-8.9-8.7-15.7-15.4-20.4-20.1c-14.4,6-30,9.1-46.8,9.1c-26.5,0-50.5-7.4-72-22.2c-21.5-14.7-36.9-34.2-46.3-58.4c8.4-20.8,21.8-38.6,40.3-53.3c-4-4-9.7-9.7-16.9-17.1C26.2,44.8,22.1,40.7,21.1,39.7L21.1,39.7z M128.2,68.8c-6.7,0-13.2,1.3-19.6,4L85.5,49.7c13.1-5,27.3-7.5,42.8-7.5c26.5,0,50.4,7.4,71.7,22.2c21.3,14.8,36.7,34.2,46,58.4c-8,19.8-20.3,36.7-36.7,50.8l-31.2-31.2c2.7-6.4,4-12.9,4-19.6c0-14.8-5.3-27.4-15.8-38C155.7,74.2,143,68.9,128.2,68.8L128.2,68.8z"/></g></g>
</svg>