<?xml version="1.0" encoding="utf-8"?>
<!-- Svg Vector Icons : http://www.onlinewebfonts.com/icon -->
<!DOCTYPE svg PUBLIC "-//W3C//DTD SVG 1.1//EN" "http://www.w3.org/Graphics/SVG/1.1/DTD/svg11.dtd">
<svg version="1.1" xmlns="http://www.w3.org/2000/svg" xmlns:xlink="http://www.w3.org/1999/xlink" x="0px" y="0px" viewBox="0 0 256 256" enable-background="new 0 0 256 256" xml:space="preserve">
<metadata> Svg Vector Icons : http://www.onlinewebfonts.com/icon </metadata>
<g><g><path fill="#000000" d="M128,47.5c-53.6,0-99.4,33.4-118,80.5c18.6,47.1,64.4,80.5,118,80.5c53.6,0,99.4-33.4,118-80.5C227.4,80.9,181.6,47.5,128,47.5z M128,181.6c-29.6,0-53.6-24-53.6-53.6c0-29.6,24-53.6,53.6-53.6c29.6,0,53.6,24,53.6,53.6C181.6,157.6,157.6,181.6,128,181.6z M128,95.8c-17.8,0-32.2,14.4-32.2,32.2c0,17.8,14.4,32.2,32.2,32.2s32.2-14.4,32.2-32.2C160.2,110.2,145.8,95.8,128,95.8z"/></g></g>
</svg>